<svg id="visual" viewBox="0 0 1200 800" width="1200" height="800" xmlns="http://www.w3.org/2000/svg" xmlns:xlink="http://www.w3.org/1999/xlink" version="1.1"><rect x="0" y="0" width="1200" height="800" fill="#FFFFFF"></rect><defs><linearGradient id="grad1_0" x1="33.3%" y1="0%" x2="100%" y2="100%"><stop offset="20%" stop-color="#ffffff" stop-opacity="1"></stop><stop offset="80%" stop-color="#ffffff" stop-opacity="1"></stop></linearGradient></defs><defs><linearGradient id="grad2_0" x1="0%" y1="0%" x2="66.7%" y2="100%"><stop offset="20%" stop-color="#ffffff" stop-opacity="1"></stop><stop offset="80%" stop-color="#ffffff" stop-opacity="1"></stop></linearGradient></defs><g transform="translate(1200, 0)"><path d="M0 504.8C-71.5 501.5 -143 498.1 -191.7 462.9C-240.4 427.6 -266.3 360.3 -314 314C-361.6 267.6 -430.9 242 -466.4 193.2C-501.8 144.3 -503.3 72.2 -504.8 0L0 0Z" fill="#0066FF"></path></g><g transform="translate(0, 800)"><path d="M0 -504.8C69.3 -495.5 138.7 -486.3 186.7 -450.9C234.8 -415.4 261.6 -353.8 310.4 -310.4C359.3 -267 430.3 -241.9 466.4 -193.2C502.4 -144.5 503.6 -72.2 504.8 0L0 0Z" fill="#0066FF"></path></g></svg>