<svg id="visual" viewBox="0 0 900 300" width="900" height="300" xmlns="http://www.w3.org/2000/svg" xmlns:xlink="http://www.w3.org/1999/xlink" version="1.1"><path d="M0 98L16.7 101.2C33.3 104.3 66.7 110.7 100 107.8C133.3 105 166.7 93 200 87.3C233.3 81.7 266.7 82.3 300 82C333.3 81.7 366.7 80.3 400 82.5C433.3 84.7 466.7 90.3 500 97.5C533.3 104.7 566.7 113.3 600 111.5C633.3 109.7 666.7 97.3 700 96.7C733.3 96 766.7 107 800 108.5C833.3 110 866.7 102 883.3 98L900 94L900 301L883.3 301C866.7 301 833.3 301 800 301C766.7 301 733.3 301 700 301C666.7 301 633.3 301 600 301C566.7 301 533.3 301 500 301C466.7 301 433.3 301 400 301C366.7 301 333.3 301 300 301C266.7 301 233.3 301 200 301C166.7 301 133.3 301 100 301C66.7 301 33.3 301 16.7 301L0 301Z" fill="#4facf7"></path><path d="M0 148L16.7 148.8C33.3 149.7 66.7 151.3 100 145.7C133.3 140 166.7 127 200 127.2C233.3 127.3 266.7 140.7 300 140.7C333.3 140.7 366.7 127.3 400 126.3C433.3 125.3 466.7 136.7 500 140.8C533.3 145 566.7 142 600 134.7C633.3 127.3 666.7 115.7 700 108.8C733.3 102 766.7 100 800 101.2C833.3 102.3 866.7 106.7 883.3 108.8L900 111L900 301L883.3 301C866.7 301 833.3 301 800 301C766.7 301 733.3 301 700 301C666.7 301 633.3 301 600 301C566.7 301 533.3 301 500 301C466.7 301 433.3 301 400 301C366.7 301 333.3 301 300 301C266.7 301 233.3 301 200 301C166.7 301 133.3 301 100 301C66.7 301 33.3 301 16.7 301L0 301Z" fill="#2b9dfc"></path><path d="M0 161L16.7 163.8C33.3 166.7 66.7 172.3 100 176.3C133.3 180.3 166.7 182.7 200 178.7C233.3 174.7 266.7 164.3 300 157.3C333.3 150.3 366.7 146.7 400 148.5C433.3 150.3 466.7 157.7 500 165.3C533.3 173 566.7 181 600 186C633.3 191 666.7 193 700 189.5C733.3 186 766.7 177 800 176C833.3 175 866.7 182 883.3 185.5L900 189L900 301L883.3 301C866.7 301 833.3 301 800 301C766.7 301 733.3 301 700 301C666.7 301 633.3 301 600 301C566.7 301 533.3 301 500 301C466.7 301 433.3 301 400 301C366.7 301 333.3 301 300 301C266.7 301 233.3 301 200 301C166.7 301 133.3 301 100 301C66.7 301 33.3 301 16.7 301L0 301Z" fill="#008cff"></path><path d="M0 215L16.7 211.7C33.3 208.3 66.7 201.7 100 201C133.3 200.3 166.7 205.7 200 210.2C233.3 214.7 266.7 218.3 300 221.3C333.3 224.3 366.7 226.7 400 225C433.3 223.3 466.7 217.7 500 216.2C533.3 214.7 566.7 217.3 600 220C633.3 222.7 666.7 225.3 700 223C733.3 220.7 766.7 213.3 800 214C833.3 214.7 866.7 223.3 883.3 227.7L900 232L900 301L883.3 301C866.7 301 833.3 301 800 301C766.7 301 733.3 301 700 301C666.7 301 633.3 301 600 301C566.7 301 533.3 301 500 301C466.7 301 433.3 301 400 301C366.7 301 333.3 301 300 301C266.7 301 233.3 301 200 301C166.7 301 133.3 301 100 301C66.7 301 33.3 301 16.7 301L0 301Z" fill="#007aff"></path><path d="M0 238L16.7 239.2C33.3 240.3 66.7 242.7 100 243.5C133.3 244.3 166.7 243.7 200 243.5C233.3 243.3 266.7 243.7 300 246.5C333.3 249.3 366.7 254.7 400 257.7C433.3 260.7 466.7 261.3 500 257.3C533.3 253.3 566.7 244.7 600 242.7C633.3 240.7 666.7 245.3 700 248.2C733.3 251 766.7 252 800 248.7C833.3 245.3 866.7 237.7 883.3 233.8L900 230L900 301L883.3 301C866.7 301 833.3 301 800 301C766.7 301 733.3 301 700 301C666.7 301 633.3 301 600 301C566.7 301 533.3 301 500 301C466.7 301 433.3 301 400 301C366.7 301 333.3 301 300 301C266.7 301 233.3 301 200 301C166.7 301 133.3 301 100 301C66.7 301 33.3 301 16.7 301L0 301Z" fill="#0066ff"></path></svg>