<svg id="visual" viewBox="0 0 900 600" width="900" height="600" xmlns="http://www.w3.org/2000/svg" xmlns:xlink="http://www.w3.org/1999/xlink" version="1.1"><rect x="0" y="0" width="900" height="600" fill="#ffffff"></rect><path d="M0 225L21.5 219C43 213 86 201 128.8 192.2C171.7 183.3 214.3 177.7 257.2 175.7C300 173.7 343 175.3 385.8 187.8C428.7 200.3 471.3 223.7 514.2 235.2C557 246.7 600 246.3 642.8 235.3C685.7 224.3 728.3 202.7 771.2 197.8C814 193 857 205 878.5 211L900 217L900 0L878.5 0C857 0 814 0 771.2 0C728.3 0 685.7 0 642.8 0C600 0 557 0 514.2 0C471.3 0 428.7 0 385.8 0C343 0 300 0 257.2 0C214.3 0 171.7 0 128.8 0C86 0 43 0 21.5 0L0 0Z" fill="#69d2fa"></path><path d="M0 166L21.5 162.3C43 158.7 86 151.3 128.8 154.5C171.7 157.7 214.3 171.3 257.2 169.5C300 167.7 343 150.3 385.8 150C428.7 149.7 471.3 166.3 514.2 169.2C557 172 600 161 642.8 153C685.7 145 728.3 140 771.2 144.7C814 149.3 857 163.7 878.5 170.8L900 178L900 0L878.5 0C857 0 814 0 771.2 0C728.3 0 685.7 0 642.8 0C600 0 557 0 514.2 0C471.3 0 428.7 0 385.8 0C343 0 300 0 257.2 0C214.3 0 171.7 0 128.8 0C86 0 43 0 21.5 0L0 0Z" fill="#3bbffd"></path><path d="M0 129L21.5 131.2C43 133.3 86 137.7 128.8 136.2C171.7 134.7 214.3 127.3 257.2 122C300 116.7 343 113.3 385.8 116.5C428.7 119.7 471.3 129.3 514.2 127C557 124.7 600 110.3 642.8 103.5C685.7 96.7 728.3 97.3 771.2 106.3C814 115.3 857 132.7 878.5 141.3L900 150L900 0L878.5 0C857 0 814 0 771.2 0C728.3 0 685.7 0 642.8 0C600 0 557 0 514.2 0C471.3 0 428.7 0 385.8 0C343 0 300 0 257.2 0C214.3 0 171.7 0 128.8 0C86 0 43 0 21.5 0L0 0Z" fill="#00abff"></path><path d="M0 68L21.5 75.3C43 82.7 86 97.3 128.8 95.3C171.7 93.3 214.3 74.7 257.2 71.7C300 68.7 343 81.3 385.8 88.8C428.7 96.3 471.3 98.7 514.2 97C557 95.3 600 89.7 642.8 90.3C685.7 91 728.3 98 771.2 102.3C814 106.7 857 108.3 878.5 109.2L900 110L900 0L878.5 0C857 0 814 0 771.2 0C728.3 0 685.7 0 642.8 0C600 0 557 0 514.2 0C471.3 0 428.7 0 385.8 0C343 0 300 0 257.2 0C214.3 0 171.7 0 128.8 0C86 0 43 0 21.5 0L0 0Z" fill="#1894ff"></path><path d="M0 32L21.5 38.8C43 45.7 86 59.3 128.8 63.8C171.7 68.3 214.3 63.7 257.2 57C300 50.3 343 41.7 385.8 38.7C428.7 35.7 471.3 38.3 514.2 45C557 51.7 600 62.3 642.8 67.5C685.7 72.7 728.3 72.3 771.2 65.2C814 58 857 44 878.5 37L900 30L900 0L878.5 0C857 0 814 0 771.2 0C728.3 0 685.7 0 642.8 0C600 0 557 0 514.2 0C471.3 0 428.7 0 385.8 0C343 0 300 0 257.2 0C214.3 0 171.7 0 128.8 0C86 0 43 0 21.5 0L0 0Z" fill="#4f78f7"></path></svg>